<svg xmlns="http://www.w3.org/2000/svg" width="102.25" height="102.25" viewBox="0 0 102.25 102.25">
  <g id="_2eb50c958572bb1fa16f02b1967acf7d" data-name="2eb50c958572bb1fa16f02b1967acf7d" transform="translate(51.539 -973.149)">
    <circle id="Ellipse_5" data-name="Ellipse 5" cx="51.125" cy="51.125" r="51.125" transform="translate(-51.539 973.149)" fill="#50b748"/>
    <path id="Path_7" data-name="Path 7" d="M12.2,1027.36a2.171,2.171,0,1,0,0,4.343,58.422,58.422,0,0,1,58.459,58.459,2.171,2.171,0,0,0,4.343,0A62.837,62.837,0,0,0,12.2,1027.36Zm.049,16.25a2.218,2.218,0,1,0,0,4.436,42.036,42.036,0,0,1,42.067,42.067,2.218,2.218,0,1,0,4.436,0,46.54,46.54,0,0,0-46.5-46.5Zm.11,16.258a2.322,2.322,0,1,0,0,4.643A25.455,25.455,0,0,1,37.853,1090a2.324,2.324,0,1,0,4.647,0,30.173,30.173,0,0,0-30.144-30.136Zm5.769,16.242a8.125,8.125,0,1,0,8.125,8.125A8.149,8.149,0,0,0,18.125,1076.11Z" transform="translate(-37.414 -35.587)" fill="#fff" opacity="0.8"/>
  </g>
</svg>
