<svg xmlns="http://www.w3.org/2000/svg" width="113.2" height="105.061" viewBox="0 0 113.2 105.061">
  <path id="_7d3d30c5036fb75ddb686c441de6a0fc" data-name="7d3d30c5036fb75ddb686c441de6a0fc" d="M58.652,35.273A18.394,18.394,0,0,0,38.643,38.05a14.921,14.921,0,0,0,0,22.217l16,15.091a5.97,5.97,0,0,0,8.026,0l16-14.829a14.921,14.921,0,0,0,0-22.217,18.378,18.378,0,0,0-20.008-3.039ZM70.634,52.878,58.652,63.986,46.669,52.878a4.975,4.975,0,0,1,0-7.44,5.972,5.972,0,0,1,7.969,0,5.97,5.97,0,0,0,8.026,0,5.972,5.972,0,0,1,7.969,0,4.975,4.975,0,0,1,0,7.44ZM58.652,2C27.436,2,2.131,25.459,2.131,54.4A49.555,49.555,0,0,0,14.9,87.565L3.6,98.045a4.962,4.962,0,0,0-1.187,5.711A5.715,5.715,0,0,0,7.783,106.8H58.652c12.455,0,19.431,2.866,33.561-10.233S115.172,71.79,115.172,54.4C115.172,25.459,89.867,2,58.652,2Zm0,94.316H21.4l5.256-4.873a4.973,4.973,0,0,0,0-7.388C11.4,69.922,9.032,47.764,21,31.131S55.957,8.019,75.891,15.66s31.271,27.27,27.078,46.886S80.222,96.3,58.652,96.316Z" transform="translate(-1.972 -2)" fill="#52bad5"/>
</svg>
