<svg xmlns="http://www.w3.org/2000/svg" width="138" height="140" viewBox="0 0 138 140">
  <g id="Group_27" data-name="Group 27" transform="translate(-1637 -614)">
    <ellipse id="Ellipse_6" data-name="Ellipse 6" cx="69" cy="70" rx="69" ry="70" transform="translate(1637 614)" fill="#1ec0eb"/>
    <path id="_510c44a574f3765bd8912da01a80fbd4" data-name="510c44a574f3765bd8912da01a80fbd4" d="M71.125,38.387H44.275V8.912A4.709,4.709,0,0,0,39.8,4a4.709,4.709,0,0,0-4.475,4.912V38.387H8.475a4.934,4.934,0,0,0,0,9.825h26.85V77.687A4.709,4.709,0,0,0,39.8,82.6a4.709,4.709,0,0,0,4.475-4.912V48.212h26.85a4.934,4.934,0,0,0,0-9.825Z" transform="translate(1666.2 640.7)" fill="rgba(0,0,0,0.6)"/>
  </g>
</svg>
