<svg xmlns="http://www.w3.org/2000/svg" width="422.6" height="549.53" viewBox="0 0 422.6 549.53">
  <g id="Group_24" data-name="Group 24" transform="translate(-94 -430.47)">
    <g id="Rectangle_14" data-name="Rectangle 14" transform="translate(94 483)" fill="#fff" stroke="#707070" stroke-width="1">
      <rect width="416" height="497" stroke="none"/>
      <rect x="0.5" y="0.5" width="415" height="496" fill="none"/>
    </g>
    <path id="_7d3d30c5036fb75ddb686c441de6a0fc" data-name="7d3d30c5036fb75ddb686c441de6a0fc" d="M58.652,35.273A18.394,18.394,0,0,0,38.643,38.05a14.921,14.921,0,0,0,0,22.217l16,15.091a5.97,5.97,0,0,0,8.026,0l16-14.829a14.921,14.921,0,0,0,0-22.217,18.378,18.378,0,0,0-20.008-3.039ZM70.634,52.878,58.652,63.986,46.669,52.878a4.975,4.975,0,0,1,0-7.44,5.972,5.972,0,0,1,7.969,0,5.97,5.97,0,0,0,8.026,0,5.972,5.972,0,0,1,7.969,0,4.975,4.975,0,0,1,0,7.44ZM58.652,2C27.436,2,2.131,25.459,2.131,54.4A49.555,49.555,0,0,0,14.9,87.565L3.6,98.045a4.962,4.962,0,0,0-1.187,5.711A5.715,5.715,0,0,0,7.783,106.8H58.652c12.455,0,19.431,2.866,33.561-10.233S115.172,71.79,115.172,54.4C115.172,25.459,89.867,2,58.652,2Zm0,94.316H21.4l5.256-4.873a4.973,4.973,0,0,0,0-7.388C11.4,69.922,9.032,47.764,21,31.131S55.957,8.019,75.891,15.66s31.271,27.27,27.078,46.886S80.222,96.3,58.652,96.316Z" transform="translate(401.428 428.47)" fill="#52bad5"/>
    <text id="Medical_Advice" data-name="Medical Advice" transform="translate(101 560)" fill="#52bad5" font-size="45" font-family="Nunito-SemiBold, Nunito" font-weight="600"><tspan x="-153.585" y="45">Medical Advice</tspan></text>
    <text id="_Experience_round-the-clock_access_to_top_medical_specialists_with_our_24_7_online_consultation_service._Receive_immediate_expert_advice_for_any_health_concern_ensuring_prompt_and_personalized_care._Benefit_from_the_convenience_of_virtual_consultations_" data-name="
Experience round-the-clock access to top medical specialists with our 24/7 online consultation service. Receive immediate, expert advice for any health concern, ensuring prompt and personalized care. Benefit from the convenience of virtual consultations, " transform="translate(120 604)" font-size="20" font-family="Nunito-Regular, Nunito"><tspan x="0" y="20"></tspan><tspan x="0" y="47">Experience round-the-clock access to </tspan><tspan x="0" y="74">top medical specialists with our 24/7 </tspan><tspan x="0" y="101">online consultation service. Receive </tspan><tspan x="0" y="128">immediate, expert advice for any health </tspan><tspan x="0" y="155">concern, ensuring prompt and </tspan><tspan x="0" y="182">personalized care. Benefit from the </tspan><tspan x="0" y="209">convenience of virtual consultations, </tspan><tspan x="0" y="236">connecting you to medical experts from </tspan><tspan x="0" y="263">the comfort of your home. Our platform </tspan><tspan x="0" y="290">revolutionizes healthcare, offering peace </tspan><tspan x="0" y="317">of mind and expert guidance </tspan></text>
  </g>
</svg>
