<svg xmlns="http://www.w3.org/2000/svg" xmlns:xlink="http://www.w3.org/1999/xlink" width="72" height="72" viewBox="0 0 72 72">
  <defs>
    <clipPath id="clip-path">
      <rect id="Rectangle_11" data-name="Rectangle 11" width="72" height="72" fill="#fff"/>
    </clipPath>
  </defs>
  <g id="_1c4465e57a557c9e05122d5a8622f5d1" data-name="1c4465e57a557c9e05122d5a8622f5d1" clip-path="url(#clip-path)">
    <path id="Path_2" data-name="Path 2" d="M38.329,2.753a5.232,5.232,0,0,0-8.108,0l-2.97,3.634a.748.748,0,0,1-.844.227l-4.385-1.66A5.239,5.239,0,0,0,15,9.016l-.758,4.635a.749.749,0,0,1-.618.619L9,15.03a5.251,5.251,0,0,0-4.054,7.036L6.6,26.46a.751.751,0,0,1-.226.845L2.749,30.281a5.257,5.257,0,0,0,0,8.125l3.627,2.975a.751.751,0,0,1,.226.845L4.946,46.62A5.251,5.251,0,0,0,9,53.656l4.626.76a.749.749,0,0,1,.618.619L15,59.669a5.239,5.239,0,0,0,7.022,4.062l4.385-1.66a.747.747,0,0,1,.844.227l2.97,3.634a5.232,5.232,0,0,0,8.108,0L41.3,62.3a.747.747,0,0,1,.844-.227l4.385,1.66a5.239,5.239,0,0,0,7.022-4.062l.758-4.635a.749.749,0,0,1,.617-.619l4.626-.76A5.251,5.251,0,0,0,63.6,46.62l-1.657-4.394a.751.751,0,0,1,.226-.845L65.8,38.405a5.257,5.257,0,0,0,0-8.125l-3.627-2.975a.751.751,0,0,1-.226-.845L63.6,22.066A5.251,5.251,0,0,0,59.55,15.03l-4.626-.76a.749.749,0,0,1-.617-.619l-.758-4.635a5.238,5.238,0,0,0-7.022-4.062l-4.385,1.66a.748.748,0,0,1-.844-.227Z" transform="translate(1.653 1.657)" fill="#4dc4ff"/>
    <path id="Path_3" data-name="Path 3" d="M42.516,8.409a2.253,2.253,0,0,1,0,3.182l-20.957,21a2.242,2.242,0,0,1-3.175,0l-11.976-12a2.248,2.248,0,0,1,3.175-3.182L19.971,27.818,39.34,8.409A2.242,2.242,0,0,1,42.516,8.409Z" transform="translate(11.465 15.5)" fill="#eceff1" fill-rule="evenodd"/>
    <path id="Path_4" data-name="Path 4" d="M34.273.829V67.857a5.208,5.208,0,0,1-4.052-1.924L27.252,62.3a.747.747,0,0,0-.844-.227l-4.385,1.66A5.239,5.239,0,0,1,15,59.669l-.758-4.635a.749.749,0,0,0-.618-.619L9,53.656A5.251,5.251,0,0,1,4.946,46.62L6.6,42.226a.751.751,0,0,0-.226-.845L2.749,38.405a5.257,5.257,0,0,1,0-8.125l3.627-2.975A.751.751,0,0,0,6.6,26.46L4.946,22.066A5.251,5.251,0,0,1,9,15.03l4.626-.76a.749.749,0,0,0,.618-.619L15,9.016a5.239,5.239,0,0,1,7.022-4.062l4.385,1.66a.748.748,0,0,0,.844-.226l2.97-3.634A5.209,5.209,0,0,1,34.273.829Z" transform="translate(1.653 1.657)" fill="#45b0e5" fill-rule="evenodd"/>
    <path id="Path_5" data-name="Path 5" d="M24.462,17.318v6.364l-2.9,2.909a2.242,2.242,0,0,1-3.175,0l-11.976-12a2.248,2.248,0,0,1,3.175-3.182L19.971,21.818Z" transform="translate(11.465 21.5)" fill="#d4d6d8" fill-rule="evenodd"/>
  </g>
</svg>
