<svg xmlns="http://www.w3.org/2000/svg" width="112.867" height="97.933" viewBox="0 0 112.867 97.933">
  <path id="_22_video_call" data-name="22 video call" d="M92.392,37.4a4.547,4.547,0,0,0-4.021,0L72.287,46.384a3.414,3.414,0,0,0-1.85,2.938V43.971c0-5.795-5.4-10.493-12.063-10.493H34.168c-6.662,0-12.063,4.7-12.063,10.493v13.99c0,5.795,5.4,10.493,12.063,10.493H58.294c6.662,0,12.063-4.7,12.063-10.493V52.47a3.414,3.414,0,0,0,1.85,2.938L88.291,64.4a4.563,4.563,0,0,0,4.1.14,3.457,3.457,0,0,0,2.091-3.078V40.474A3.457,3.457,0,0,0,92.392,37.4ZM62.315,57.961a3.787,3.787,0,0,1-4.021,3.5H34.168a3.787,3.787,0,0,1-4.021-3.5V43.971a3.787,3.787,0,0,1,4.021-3.5H58.294a3.787,3.787,0,0,1,4.021,3.5Zm24.126-2.9-7.318-4.092,7.318-4.092ZM58.294,2C27.2,2,2,23.923,2,50.966,1.975,63.275,7.338,75.13,17,84.123a27.675,27.675,0,0,1-8.525,7l-4.5,2.343a3.307,3.307,0,0,0-1.759,3.9,3.965,3.965,0,0,0,3.81,2.568H22.105a39.447,39.447,0,0,0,16.084-3.323c21.114,7.133,45.087,2.565,60.837-11.594s20.212-35.15,11.32-53.27S80.945,1.9,58.294,2Zm0,90.937a54.55,54.55,0,0,1-18.859-3.323h-.241a2.213,2.213,0,0,0-.8,0H36.943l-.844.21h-.2a30.777,30.777,0,0,1-13.792,3.113H18.848a32.29,32.29,0,0,0,6.715-7.52s0-.175,0-.245l.563-.665a3.8,3.8,0,0,0,0-.665,4.169,4.169,0,0,0,0-.665,3.53,3.53,0,0,0,0-.63,4.307,4.307,0,0,0-.322-.595,2.188,2.188,0,0,0-.483-.56.64.64,0,0,0,0-.21C8.654,67.209,5.748,44.905,18.4,28.039S55.683,4.5,77.106,12.132s33.592,27.43,29,47.167S81.445,93.153,58.294,92.937Z" transform="translate(-2 -2)" fill="#52bad5"/>
</svg>
